<svg viewBox="700 -518 15 15" version="1.1" xmlns="http://www.w3.org/2000/svg" xmlns:xlink="http://www.w3.org/1999/xlink">
    <path d="M709.516998,-507.13832 C708.5288,-506.422202 707.313705,-506 706,-506 C702.686292,-506 700,-508.686292 700,-512 C700,-515.313708 702.686292,-518 706,-518 C709.313708,-518 712,-515.313708 712,-512 C712,-510.685846 711.577509,-509.47037 710.860946,-508.48199 C710.952983,-508.4362 711.038907,-508.375306 711.114799,-508.299414 L713.956268,-505.457945 C714.343191,-505.071022 714.342994,-504.443499 713.949747,-504.050253 C713.559223,-503.659728 712.923753,-503.662033 712.542055,-504.043732 L709.700586,-506.885201 C709.624344,-506.961443 709.563132,-507.047027 709.516998,-507.13832 Z M706,-508.181818 C708.108724,-508.181818 709.818182,-509.891276 709.818182,-512 C709.818182,-514.108724 708.108724,-515.818182 706,-515.818182 C703.891276,-515.818182 702.181818,-514.108724 702.181818,-512 C702.181818,-509.891276 703.891276,-508.181818 706,-508.181818 Z" id="SearchShape" stroke="none" fill-rule="evenodd"></path>
</svg>